<svg width="18" height="19" viewBox="0 0 18 19" fill="none" xmlns="http://www.w3.org/2000/svg">
<path d="M13.7494 0.132568C14.5094 0.456706 15.3477 0.669071 16.0183 1.11616C17.2702 1.95444 17.8737 3.21746 17.8961 4.72638C17.9185 6.25764 17.9073 7.77774 17.8961 9.309C17.8961 10.0691 17.6167 10.3485 16.8454 10.3485C15.0236 10.3597 13.1905 10.3485 11.3686 10.3485C11.1675 10.3485 10.9663 10.3485 10.7204 10.3485C10.7204 12.0139 10.7204 13.6122 10.7204 15.2105C10.7204 16.0153 10.698 16.8089 10.7315 17.6136C10.7539 18.1278 10.5974 18.5078 10.1615 18.7872C10.0162 18.7872 9.85973 18.7872 9.71443 18.7872C9.17792 18.5637 9.07733 18.1278 9.08851 17.6024C9.09968 15.4117 9.08851 13.2098 9.08851 11.0191C9.08851 10.8179 9.08851 10.6167 9.08851 10.3485C8.80908 10.3485 8.59671 10.3485 8.37317 10.3485C6.00361 10.3485 3.64524 10.3485 1.27568 10.3485C0.325625 10.3597 0.0909051 10.1249 0.0909051 9.18606C0.0909051 7.75538 0.079728 6.32471 0.0909051 4.88286C0.113259 2.44624 1.62217 0.657894 4.03644 0.210808C4.1035 0.199631 4.17056 0.154923 4.2488 0.132568C7.41194 0.132568 10.5751 0.132568 13.7494 0.132568ZM16.2978 8.64955C16.2978 7.38654 16.3089 6.15705 16.2978 4.93874C16.2642 3.08333 14.9342 1.77561 13.0564 1.76443C11.6369 1.75325 10.2286 1.76443 8.80908 1.76443C8.6526 1.76443 8.50729 1.79796 8.27258 1.82032C9.1891 2.94921 9.44618 4.16752 9.39029 5.48642C9.34558 6.53707 9.37911 7.58772 9.37911 8.64955C11.7263 8.64955 13.9841 8.64955 16.2978 8.64955ZM7.70254 8.66073C7.70254 7.43124 7.70254 6.26882 7.70254 5.09522C7.70254 4.90521 7.71372 4.72638 7.69136 4.53636C7.57959 3.11687 6.32775 1.90973 4.89708 1.82032C3.4664 1.7309 1.94631 2.72567 1.81219 4.08928C1.65571 5.58702 1.77865 7.11828 1.77865 8.66073C3.7123 8.66073 5.67948 8.66073 7.70254 8.66073Z" fill="white"/>
<path d="M4.64 5.4976C4.17056 5.47524 3.86878 5.1064 3.89113 4.59225C3.91349 4.12281 4.2488 3.79867 4.71824 3.82103C5.17651 3.8322 5.51182 4.2234 5.47829 4.7152C5.44476 5.16228 5.06473 5.51995 4.64 5.4976Z" fill="white"/>
</svg>
