<svg width="16" height="12" viewBox="0 0 16 12" fill="none" xmlns="http://www.w3.org/2000/svg">
<path d="M8.04754 0.342529C9.54185 0.342529 11.0362 0.342529 12.5223 0.342529C14.1315 0.35074 15.2563 1.47558 15.2563 3.08483C15.2563 4.98967 15.2563 6.88629 15.2563 8.79113C15.2563 10.3758 14.1233 11.5088 12.5387 11.5088C9.52542 11.517 6.51217 11.517 3.49892 11.5088C1.9143 11.5088 0.78946 10.3675 0.78125 8.79113C0.78125 6.87808 0.78125 4.95683 0.78125 3.04378C0.797671 1.492 1.93072 0.35074 3.49071 0.342529C5.00965 0.342529 6.52859 0.342529 8.04754 0.342529ZM2.11135 3.15052C2.11135 5.07998 2.11135 6.91913 2.11135 8.75007C2.11135 9.66965 2.64503 10.2033 3.56461 10.2033C6.5368 10.2033 9.509 10.2033 12.4812 10.2033C13.4254 10.2033 13.9509 9.66965 13.9509 8.72544C13.9509 7.01766 13.9509 5.30167 13.9509 3.59388C13.9509 3.47894 13.9509 3.35578 13.9509 3.16694C13.8113 3.27368 13.721 3.33115 13.6389 3.39683C12.6536 4.16041 11.6766 4.93219 10.6913 5.68756C10.3054 5.98314 9.91953 6.31977 9.48437 6.52503C8.12964 7.16545 6.88986 6.90271 5.74039 5.98314C4.55808 5.03072 3.36756 4.12757 2.11135 3.15052ZM2.61219 1.83684C2.7764 1.98463 2.83387 2.0421 2.89956 2.09136C4.16397 3.07662 5.42018 4.05367 6.68459 5.03893C7.59596 5.74503 8.45806 5.74503 9.37764 5.03072C10.3383 4.28357 11.2989 3.53641 12.2595 2.78926C12.6208 2.5101 12.982 2.22273 13.4583 1.84505C13.0806 1.76294 12.826 1.66442 12.5715 1.66442C9.53364 1.65621 6.49575 1.65621 3.45787 1.66442C3.21977 1.66442 2.97345 1.76294 2.61219 1.83684Z" fill="white"/>
</svg>
