<svg width="15" height="21" viewBox="0 0 15 21" fill="none" xmlns="http://www.w3.org/2000/svg">
<path d="M0.902545 4.34646C0.890481 3.11597 1.42128 2.29565 2.53113 1.81311C3.24288 1.49945 3.95463 1.14961 4.66638 0.835955C5.80036 0.329284 7.01878 0.75151 7.57371 1.87342C7.99593 2.742 8.4061 3.61058 8.79213 4.49122C9.28674 5.58901 8.9007 6.73505 7.83911 7.32617C7.44101 7.55537 6.99466 7.70014 6.59656 7.92935C6.43973 8.02585 6.28291 8.29125 6.29497 8.46014C6.50005 10.2335 7.26006 11.7656 8.44229 13.0684C8.55086 13.1891 8.84039 13.2373 8.99721 13.177C9.37118 13.0443 9.72103 12.8272 10.0829 12.6703C11.3014 12.1154 12.4836 12.5256 13.0747 13.7199C13.4969 14.5764 13.9071 15.457 14.3052 16.3377C14.7636 17.351 14.4017 18.5091 13.3642 19.0882C12.4595 19.5948 11.5064 20.0533 10.5414 20.4152C9.70896 20.7288 8.9369 20.4393 8.2734 19.8361C4.91972 16.7478 2.65177 12.9961 1.60223 8.55665C1.28858 7.1814 1.13175 5.7579 0.902545 4.34646ZM8.62324 14.9142C8.24927 14.6729 7.80292 14.504 7.50133 14.1903C5.94513 12.5738 5.07655 10.6316 4.79908 8.39983C4.70258 7.66395 4.98004 7.09696 5.64354 6.75918C6.08989 6.52997 6.5483 6.33695 7.00672 6.10774C7.54958 5.83028 7.68228 5.52869 7.42895 4.98583C7.0791 4.2017 6.70513 3.41756 6.33116 2.64549C6.04163 2.04231 5.72798 1.93374 5.11274 2.2112C4.4613 2.51279 3.80987 2.83851 3.14637 3.11597C2.62764 3.33312 2.36224 3.6709 2.45875 4.22582C2.70002 5.80615 2.83272 7.42267 3.23082 8.96681C4.25622 12.8272 6.33116 16.0843 9.31087 18.7504C9.52801 18.9434 10.0106 19.0399 10.276 18.9434C11.048 18.6659 11.7839 18.2799 12.5198 17.9059C13.0506 17.6285 13.1712 17.2424 12.9179 16.6996C12.6163 16.0481 12.2906 15.3967 11.989 14.7453C11.5185 13.744 11.3496 13.6837 10.3242 14.1542C9.80547 14.4196 9.26261 14.6367 8.62324 14.9142Z" fill="white"/>
</svg>
