<svg xmlns="http://www.w3.org/2000/svg" width="500" height="500" viewBox="0 0 256 256">
  <g fill="#fff" stroke-miterlimit="10" font-family="none" font-size="none" font-weight="none" style="mix-blend-mode:normal" text-anchor="none">
    <path d="M192 35.2h25.6v25.6H192zM102.4 9.6h12.8v12.8h-12.8zm12.8 12.8h25.6v12.8h-25.6zm25.6 12.8h12.8V48h-12.8zm0-25.6h12.8v12.8h-12.8zM128 48h12.8v12.8H128zm-12.8 12.8H128v12.8h-12.8zm25.6 0h12.8v12.8h-12.8zm0 25.6h12.8v12.8h-12.8zM128 176h12.8v12.8H128zm-12.8 12.8H128v12.8h-12.8zm-12.8 12.8h12.8v12.8h-12.8zm25.6 0h12.8v12.8H128zm0 25.6h12.8V240H128zm0-128h12.8V176H128zm-38.4 0h12.8V112H89.6zm-25.6 0h12.8V112H64zm-25.6 0h12.8V112H38.4zm-12.8 25.6h12.8v12.8H25.6zm25.6 0H64v12.8H51.2zm25.6 0h12.8v12.8H76.8zm12.8 12.8h12.8v12.8H89.6zm12.8 12.8h12.8v12.8h-12.8zm12.8 12.8H128V176h-12.8zM102.4 176h12.8v12.8h-12.8zm102.4 12.8h12.8v12.8h-12.8zM192 201.6h12.8v12.8H192zm25.6 0h12.8v12.8h-12.8zm0 25.6h12.8V240h-12.8zm-38.4-38.4H192v12.8h-12.8zm25.6 25.6h12.8v12.8h-12.8zm-64 0H192v12.8h-51.2zm25.6-38.4h76.8v12.8h-76.8zm-128-38.4h12.8v12.8H38.4zM12.8 112h76.8v12.8H12.8zm217.6-12.8h12.8V112h-12.8zm-25.6 0h12.8V112h-12.8zm-25.6 0H192V112h-12.8zm-12.8 25.6h12.8v12.8h-12.8zm25.6 0h12.8v12.8H192zm25.6 0h12.8v12.8h-12.8zm12.8 12.8h12.8v12.8h-12.8zm-51.2 0H192v12.8h-12.8zm-38.4 12.8h12.8v12.8h-12.8zm25.6 0h12.8v12.8h-12.8zm25.6 0h12.8v12.8H192zm12.8 12.8h12.8V176h-12.8zm-51.2 0h12.8V176h-12.8z"/>
    <path d="M115.2 112h115.2v12.8H115.2zm-12.8-76.8h12.8v102.4h-12.8zm128-12.8v51.2h-51.2V22.4zm12.8-12.8h-76.8v76.8h76.8zM38.4 35.2H64v25.6H38.4z"/>
    <path d="M76.8 22.4v51.2H25.6V22.4zM89.6 9.6H12.8v76.8h76.8zM38.4 188.8H64v25.6H38.4z"/>
    <path d="M76.8 176v51.2H25.6V176zm12.8-12.8H12.8V240h76.8z"/>
  </g>
</svg>
