<svg width="15" height="17" viewBox="0 0 15 17" fill="none" xmlns="http://www.w3.org/2000/svg">
<path d="M7.23355 10.1456C8.03173 10.1456 8.82018 10.1358 9.61835 10.1456C12.1881 10.1748 14.242 12.2286 14.2517 14.7984C14.2517 15.0612 14.2614 15.3143 14.2517 15.5771C14.2322 16.0443 13.9305 16.3558 13.5022 16.3655C13.0544 16.3753 12.7429 16.0541 12.6943 15.5674C12.6261 14.8957 12.6456 14.1851 12.4023 13.5719C11.9253 12.3357 10.913 11.7225 9.59889 11.6933C8.022 11.6641 6.45484 11.6738 4.87794 11.6933C3.21345 11.703 1.8507 13.0463 1.80203 14.7108C1.7923 15.0223 1.81177 15.324 1.7923 15.6355C1.7631 16.0541 1.42241 16.3558 1.02332 16.3558C0.614495 16.3558 0.283542 16.0735 0.244607 15.6355C0.00125904 12.8321 1.50028 10.8659 3.70014 10.311C4.51779 10.1066 5.40357 10.1748 6.26016 10.1261C6.58138 10.1261 6.9026 10.1456 7.23355 10.1456Z" fill="white"/>
<path d="M3.34972 4.70432C3.33999 2.55313 5.08236 0.801025 7.23355 0.801025C9.38474 0.801025 11.1368 2.53366 11.1368 4.68485C11.1368 6.83605 9.39448 8.57841 7.25302 8.58815C5.10182 8.58815 3.34972 6.84578 3.34972 4.70432ZM7.28222 2.35845C5.98761 2.34872 4.91688 3.39024 4.90715 4.67512C4.89741 5.95026 5.93894 7.00152 7.20435 7.02099C8.49896 7.04046 9.56969 5.9892 9.57942 4.70432C9.58915 3.43891 8.53789 2.36818 7.28222 2.35845Z" fill="white"/>
</svg>
